<svg class="svg-icon" style="width: 1em; height: 1em;vertical-align: middle;fill: #589fe7;overflow: hidden;" viewBox="0 0 1024 1024" version="1.1" xmlns="http://www.w3.org/2000/svg"><path d="M786.850835 669.461241 629.647467 512.257873l155.050332-155.050332c31.962969-31.962969 34.045397-83.016739 2.082428-114.979708l-0.794086-0.794086c-31.963992-31.963992-85.429695-32.292474-117.39164-0.329505L513.543146 396.154575 358.752734 241.36314c-31.963992-31.963992-85.431741-32.147164-117.39164-0.187265l-0.794086 0.794086c-31.963992 31.963992-29.880541 83.533508 2.082428 115.496477l154.791435 154.791435L240.495376 669.203368c-31.963992 31.963992-29.738301 83.533508 2.225691 115.496477l0.794086 0.794086c31.962969 31.962969 81.120552 31.776727 113.084545-0.187265l156.945495-156.945495 157.204391 157.203368c31.962969 31.962969 81.120552 31.633465 113.084545-0.330528l0.794086-0.794086C816.586067 752.48105 818.810734 701.42114 786.850835 669.461241L786.850835 669.461241z"  /><path d="M787.978519 670.538783"  /><path d="M768.051677 659.07673"  /></svg>